<svg xmlns="http://www.w3.org/2000/svg" viewBox="0 0 40 40.658"><defs><style>.a{fill:#d0b08b;}</style></defs><path class="a" d="M599.864,374.952a23.462,23.462,0,0,0-3.034-3.177,13.64,13.64,0,0,1-2.115-2.207c-.055-.1-.047-.15-.032-.181s.073-.062.172-.07a7.479,7.479,0,0,1,4.227,1.3c.353.166.6.162.792-.018s.188-.431-.005-.726c-1.637-2.66-3.471-5.3-6.233-8.956a6.293,6.293,0,0,0,2.73-5.193c.529-8.476-6.653-12.376-6.726-12.415-.247-.13-.45-.224-.712.172-.461.695-1.173,2.1-1.173,2.1-2,4.075-6.4,4.392-7.7,4.392s-5.7-.318-7.7-4.392a22.342,22.342,0,0,0-1.173-2.1.458.458,0,0,0-.712-.172c-.073.039-7.255,3.939-6.726,12.415a6.294,6.294,0,0,0,2.73,5.193c-2.762,3.653-4.6,6.3-6.233,8.956-.191.283-.205.535,0,.733a.685.685,0,0,0,.784.01,7.573,7.573,0,0,1,4.228-1.3c.124.011.148.037.166.064s.03.089-.026.187a13.614,13.614,0,0,1-2.115,2.207,23.132,23.132,0,0,0-3.034,3.177.62.62,0,0,0-.106.728c.152.192.382.22.763.106a11.54,11.54,0,0,1,7.177-.1c2.005.638,3.123,1.19,6.614,4.644a5.843,5.843,0,0,0,10.73,0c3.492-3.454,4.6-4.024,6.614-4.643a11.457,11.457,0,0,1,7.176.1c.385.114.613.086.766-.106S600.042,375.2,599.864,374.952ZM588.775,346a10.358,10.358,0,0,1,.773-1.452,12.372,12.372,0,0,1,5.714,11.11,5.254,5.254,0,0,1-2.3,4.38q-.567-.742-1.184-1.542c-3.583-4.64-4.593-8.717-3.053-12.393Zm-8.741,5.078h.033a10.317,10.317,0,0,0,6.929-2.6c-.342,3.3.963,6.872,3.911,10.69q.568.736,1.09,1.42a21.254,21.254,0,0,1-2.842,1.044c-2.91.919-5.919,1.869-6.52,5.741a8.176,8.176,0,0,0,1.508,5.525l.129.21a6.945,6.945,0,0,1,.9,4.814,7.509,7.509,0,0,1-.276.9,4.333,4.333,0,0,1-1.3,1.609,1.7,1.7,0,0,1-1.865.2,2.285,2.285,0,0,1-.989-1.051c1.872-.181,2.29-1,2.286-1.7-.008-1.385-2.021-3.149-2.973-3.149s-2.964,1.764-2.972,3.149c0,.7.412,1.521,2.286,1.7a2.286,2.286,0,0,1-.99,1.051,1.7,1.7,0,0,1-1.865-.2,4.331,4.331,0,0,1-1.3-1.605,7.519,7.519,0,0,1-.277-.9,6.942,6.942,0,0,1,.9-4.814c.038-.063.081-.133.129-.21a8.176,8.176,0,0,0,1.507-5.525c-.6-3.872-3.61-4.822-6.52-5.741a21.233,21.233,0,0,1-2.842-1.044q.523-.686,1.09-1.42c2.948-3.818,4.253-7.4,3.911-10.69A10.317,10.317,0,0,0,580.034,351.075Zm9.556,13.743a5.706,5.706,0,0,1-5.695,1.971,4.428,4.428,0,0,1,1.088-1.908,2.265,2.265,0,0,1,1.147-.615A4.488,4.488,0,0,1,589.59,364.817Zm-9.533,13.689c-1.132-.013-1.849-.242-1.872-.6-.048-.738,1.438-1.993,1.865-2.078.427.085,1.913,1.341,1.866,2.078C581.893,378.265,581.176,378.493,580.057,378.507Zm-4.84-13.52a4.449,4.449,0,0,1,.988,1.8,5.771,5.771,0,0,1-5.692-1.967,4.662,4.662,0,0,1,3.427-.559A2.423,2.423,0,0,1,575.217,364.986ZM571.371,346.1c1.54,3.676.53,7.754-3.053,12.394q-.618.8-1.183,1.542a5.253,5.253,0,0,1-2.3-4.38,12.22,12.22,0,0,1,5.711-11.114,10.344,10.344,0,0,1,.775,1.455ZM568.4,374.624a12.745,12.745,0,0,0-3.757-.561,13.15,13.15,0,0,0-2.378.216c.558-.577,1.182-1.155,1.762-1.692a13.47,13.47,0,0,0,2.323-2.47,1.3,1.3,0,0,0,.1-1.269,1.266,1.266,0,0,0-1.106-.632,6.983,6.983,0,0,0-3.083.525c1.378-2.119,2.98-4.369,5.166-7.258a20.753,20.753,0,0,0,3.189,1.2c.455.143.9.284,1.327.432a5.579,5.579,0,0,0-2.562,1.153.5.5,0,0,0-.1.713,6.45,6.45,0,0,0,5.676,3.007,8.634,8.634,0,0,0,1.455-.124,7.476,7.476,0,0,1-1.392,4.449c-.05.08-.1.154-.135.221a8.032,8.032,0,0,0-1.08,5.406A12.153,12.153,0,0,0,568.4,374.624Zm9.1,7.3c.037,0,.075,0,.113,0a2.75,2.75,0,0,0,1.267-.317,1.18,1.18,0,0,1,2.34,0,2.75,2.75,0,0,0,1.266.317c.038,0,.075,0,.113,0a4.347,4.347,0,0,1-5.1,0Zm14.2-7.3a12.149,12.149,0,0,0-5.4,3.319,8.031,8.031,0,0,0-1.08-5.406c-.04-.066-.085-.14-.135-.221a7.476,7.476,0,0,1-1.392-4.449,8.633,8.633,0,0,0,1.455.124,6.471,6.471,0,0,0,5.676-3.007.479.479,0,0,0-.1-.713,5.553,5.553,0,0,0-2.562-1.153c.428-.148.873-.288,1.328-.432a20.76,20.76,0,0,0,3.189-1.2c2.186,2.888,3.787,5.138,5.166,7.258a6.974,6.974,0,0,0-3.083-.525,1.265,1.265,0,0,0-1.106.632,1.3,1.3,0,0,0,.1,1.269,13.48,13.48,0,0,0,2.324,2.47c.58.537,1.2,1.115,1.762,1.692A12.961,12.961,0,0,0,591.7,374.624Z" transform="translate(-560.051 -343.196)"/></svg>